<svg width="193" height="62" viewBox="0 0 193 62" fill="none" xmlns="http://www.w3.org/2000/svg">
<g filter="url(#filter0_bi_126_636)">
<path d="M45.2423 19.12C45.2423 21.1467 44.8423 23.0933 44.0423 24.96C43.2423 26.8267 42.2023 28.64 40.9223 30.4C39.6423 32.1067 38.2023 33.76 36.6023 35.36C35.0023 36.96 33.4289 38.48 31.8823 39.92C31.0823 40.6667 30.2023 41.52 29.2423 42.48C28.3356 43.3867 27.4556 44.32 26.6023 45.28C25.7489 46.24 24.9756 47.1467 24.2823 48C23.6423 48.8 23.2423 49.4667 23.0823 50H46.9223V60H9.96226C9.85559 59.4133 9.80226 58.6667 9.80226 57.76C9.80226 56.8533 9.80226 56.2133 9.80226 55.84C9.80226 53.28 10.2023 50.9333 11.0023 48.8C11.8556 46.6667 12.9489 44.6933 14.2823 42.88C15.6156 41.0133 17.1089 39.28 18.7623 37.68C20.4689 36.08 22.1489 34.48 23.8023 32.88C25.0823 31.6533 26.2823 30.5067 27.4023 29.44C28.5223 28.32 29.5089 27.2533 30.3623 26.24C31.2156 25.1733 31.8823 24.1333 32.3623 23.12C32.8423 22.0533 33.0823 20.9867 33.0823 19.92C33.0823 17.5733 32.4156 15.92 31.0823 14.96C29.7489 14 28.0956 13.52 26.1223 13.52C24.6823 13.52 23.3223 13.76 22.0423 14.24C20.8156 14.6667 19.6689 15.2 18.6023 15.84C17.5889 16.4267 16.7089 17.04 15.9623 17.68C15.2156 18.2667 14.6556 18.7467 14.2823 19.12L8.36226 10.8C10.7089 8.61333 13.4289 6.82666 16.5223 5.44C19.6689 4 23.0289 3.28 26.6023 3.28C29.8556 3.28 32.6556 3.65333 35.0023 4.4C37.3489 5.14666 39.2689 6.21333 40.7623 7.6C42.3089 8.93333 43.4289 10.5867 44.1223 12.56C44.8689 14.48 45.2423 16.6667 45.2423 19.12ZM93.751 32.16C93.751 41.4933 91.9643 48.6667 88.391 53.68C84.871 58.64 79.991 61.12 73.751 61.12C67.511 61.12 62.6043 58.64 59.031 53.68C55.511 48.6667 53.751 41.4933 53.751 32.16C53.751 27.52 54.2043 23.4133 55.111 19.84C56.071 16.2667 57.431 13.2533 59.191 10.8C60.951 8.34667 63.0577 6.48 65.511 5.2C67.9643 3.92 70.711 3.28 73.751 3.28C79.991 3.28 84.871 5.78666 88.391 10.8C91.9643 15.76 93.751 22.88 93.751 32.16ZM81.591 32.16C81.591 29.3867 81.4577 26.88 81.191 24.64C80.9243 22.3467 80.4977 20.3733 79.911 18.72C79.3243 17.0667 78.5243 15.7867 77.511 14.88C76.4977 13.9733 75.2443 13.52 73.751 13.52C72.2577 13.52 71.0043 13.9733 69.991 14.88C69.031 15.7867 68.231 17.0667 67.591 18.72C67.0043 20.3733 66.5777 22.3467 66.311 24.64C66.0443 26.88 65.911 29.3867 65.911 32.16C65.911 34.9333 66.0443 37.4667 66.311 39.76C66.5777 42.0533 67.0043 44.0267 67.591 45.68C68.231 47.3333 69.031 48.6133 69.991 49.52C71.0043 50.4267 72.2577 50.88 73.751 50.88C75.2443 50.88 76.4977 50.4267 77.511 49.52C78.5243 48.6133 79.3243 47.3333 79.911 45.68C80.4977 44.0267 80.9243 42.0533 81.191 39.76C81.4577 37.4667 81.591 34.9333 81.591 32.16ZM136.18 19.12C136.18 21.1467 135.78 23.0933 134.98 24.96C134.18 26.8267 133.14 28.64 131.86 30.4C130.58 32.1067 129.14 33.76 127.54 35.36C125.94 36.96 124.366 38.48 122.82 39.92C122.02 40.6667 121.14 41.52 120.18 42.48C119.273 43.3867 118.393 44.32 117.54 45.28C116.686 46.24 115.913 47.1467 115.22 48C114.58 48.8 114.18 49.4667 114.02 50H137.86V60H100.9C100.793 59.4133 100.74 58.6667 100.74 57.76C100.74 56.8533 100.74 56.2133 100.74 55.84C100.74 53.28 101.14 50.9333 101.94 48.8C102.793 46.6667 103.886 44.6933 105.22 42.88C106.553 41.0133 108.046 39.28 109.7 37.68C111.406 36.08 113.086 34.48 114.74 32.88C116.02 31.6533 117.22 30.5067 118.34 29.44C119.46 28.32 120.446 27.2533 121.3 26.24C122.153 25.1733 122.82 24.1333 123.3 23.12C123.78 22.0533 124.02 20.9867 124.02 19.92C124.02 17.5733 123.353 15.92 122.02 14.96C120.686 14 119.033 13.52 117.06 13.52C115.62 13.52 114.26 13.76 112.98 14.24C111.753 14.6667 110.606 15.2 109.54 15.84C108.526 16.4267 107.646 17.04 106.9 17.68C106.153 18.2667 105.593 18.7467 105.22 19.12L99.2998 10.8C101.646 8.61333 104.366 6.82666 107.46 5.44C110.606 4 113.966 3.28 117.54 3.28C120.793 3.28 123.593 3.65333 125.94 4.4C128.286 5.14666 130.206 6.21333 131.7 7.6C133.246 8.93333 134.366 10.5867 135.06 12.56C135.806 14.48 136.18 16.6667 136.18 19.12ZM181.649 19.12C181.649 21.1467 181.249 23.0933 180.449 24.96C179.649 26.8267 178.609 28.64 177.329 30.4C176.049 32.1067 174.609 33.76 173.009 35.36C171.409 36.96 169.835 38.48 168.289 39.92C167.489 40.6667 166.609 41.52 165.649 42.48C164.742 43.3867 163.862 44.32 163.009 45.28C162.155 46.24 161.382 47.1467 160.689 48C160.049 48.8 159.649 49.4667 159.489 50H183.329V60H146.369C146.262 59.4133 146.209 58.6667 146.209 57.76C146.209 56.8533 146.209 56.2133 146.209 55.84C146.209 53.28 146.609 50.9333 147.409 48.8C148.262 46.6667 149.355 44.6933 150.689 42.88C152.022 41.0133 153.515 39.28 155.169 37.68C156.875 36.08 158.555 34.48 160.209 32.88C161.489 31.6533 162.689 30.5067 163.809 29.44C164.929 28.32 165.915 27.2533 166.769 26.24C167.622 25.1733 168.289 24.1333 168.769 23.12C169.249 22.0533 169.489 20.9867 169.489 19.92C169.489 17.5733 168.822 15.92 167.489 14.96C166.155 14 164.502 13.52 162.529 13.52C161.089 13.52 159.729 13.76 158.449 14.24C157.222 14.6667 156.075 15.2 155.009 15.84C153.995 16.4267 153.115 17.04 152.369 17.68C151.622 18.2667 151.062 18.7467 150.689 19.12L144.769 10.8C147.115 8.61333 149.835 6.82666 152.929 5.44C156.075 4 159.435 3.28 163.009 3.28C166.262 3.28 169.062 3.65333 171.409 4.4C173.755 5.14666 175.675 6.21333 177.169 7.6C178.715 8.93333 179.835 10.5867 180.529 12.56C181.275 14.48 181.649 16.6667 181.649 19.12Z" fill="url(#paint0_linear_126_636)"/>
</g>
<defs>
<filter id="filter0_bi_126_636" x="5.3623" y="0.280029" width="180.966" height="63.8401" filterUnits="userSpaceOnUse" color-interpolation-filters="sRGB">
<feFlood flood-opacity="0" result="BackgroundImageFix"/>
<feGaussianBlur in="BackgroundImage" stdDeviation="1.5"/>
<feComposite in2="SourceAlpha" operator="in" result="effect1_backgroundBlur_126_636"/>
<feBlend mode="normal" in="SourceGraphic" in2="effect1_backgroundBlur_126_636" result="shape"/>
<feColorMatrix in="SourceAlpha" type="matrix" values="0 0 0 0 0 0 0 0 0 0 0 0 0 0 0 0 0 0 127 0" result="hardAlpha"/>
<feOffset dy="2"/>
<feGaussianBlur stdDeviation="1.5"/>
<feComposite in2="hardAlpha" operator="arithmetic" k2="-1" k3="1"/>
<feColorMatrix type="matrix" values="0 0 0 0 1 0 0 0 0 1 0 0 0 0 1 0 0 0 0.7 0"/>
<feBlend mode="normal" in2="shape" result="effect2_innerShadow_126_636"/>
</filter>
<linearGradient id="paint0_linear_126_636" x1="187.531" y1="59.1" x2="154.844" y2="-47.4866" gradientUnits="userSpaceOnUse">
<stop stop-color="#F64F59"/>
<stop offset="0.484375" stop-color="#C471ED"/>
<stop offset="1" stop-color="#12C2E9"/>
</linearGradient>
</defs>
</svg>
