<svg width="175" height="59" viewBox="0 0 175 59" fill="none" xmlns="http://www.w3.org/2000/svg">
<g opacity="0.9" filter="url(#filter0_bi_126_634)">
<path d="M37.2423 16.12C37.2423 18.1467 36.8423 20.0933 36.0423 21.96C35.2423 23.8267 34.2023 25.64 32.9223 27.4C31.6423 29.1067 30.2023 30.76 28.6023 32.36C27.0023 33.96 25.4289 35.48 23.8823 36.92C23.0823 37.6667 22.2023 38.52 21.2423 39.48C20.3356 40.3867 19.4556 41.32 18.6023 42.28C17.7489 43.24 16.9756 44.1467 16.2823 45C15.6423 45.8 15.2423 46.4667 15.0823 47H38.9223V57H1.96226C1.85559 56.4133 1.80226 55.6667 1.80226 54.76C1.80226 53.8533 1.80226 53.2133 1.80226 52.84C1.80226 50.28 2.20226 47.9333 3.00226 45.8C3.85559 43.6667 4.94892 41.6933 6.28226 39.88C7.61559 38.0133 9.10892 36.28 10.7623 34.68C12.4689 33.08 14.1489 31.48 15.8023 29.88C17.0823 28.6533 18.2823 27.5067 19.4023 26.44C20.5223 25.32 21.5089 24.2533 22.3623 23.24C23.2156 22.1733 23.8823 21.1333 24.3623 20.12C24.8423 19.0533 25.0823 17.9867 25.0823 16.92C25.0823 14.5733 24.4156 12.92 23.0823 11.96C21.7489 11 20.0956 10.52 18.1223 10.52C16.6823 10.52 15.3223 10.76 14.0423 11.24C12.8156 11.6667 11.6689 12.2 10.6023 12.84C9.58892 13.4267 8.70892 14.04 7.96226 14.68C7.21559 15.2667 6.65559 15.7467 6.28226 16.12L0.362256 7.8C2.70892 5.61333 5.42892 3.82666 8.52226 2.44C11.6689 0.999996 15.0289 0.279996 18.6023 0.279996C21.8556 0.279996 24.6556 0.653329 27.0023 1.4C29.3489 2.14666 31.2689 3.21333 32.7623 4.6C34.3089 5.93333 35.4289 7.58666 36.1223 9.56C36.8689 11.48 37.2423 13.6667 37.2423 16.12ZM85.751 29.16C85.751 38.4933 83.9643 45.6667 80.391 50.68C76.871 55.64 71.991 58.12 65.751 58.12C59.511 58.12 54.6043 55.64 51.031 50.68C47.511 45.6667 45.751 38.4933 45.751 29.16C45.751 24.52 46.2043 20.4133 47.111 16.84C48.071 13.2667 49.431 10.2533 51.191 7.8C52.951 5.34667 55.0577 3.48 57.511 2.2C59.9643 0.919996 62.711 0.279996 65.751 0.279996C71.991 0.279996 76.871 2.78666 80.391 7.8C83.9643 12.76 85.751 19.88 85.751 29.16ZM73.591 29.16C73.591 26.3867 73.4577 23.88 73.191 21.64C72.9243 19.3467 72.4977 17.3733 71.911 15.72C71.3243 14.0667 70.5243 12.7867 69.511 11.88C68.4977 10.9733 67.2443 10.52 65.751 10.52C64.2577 10.52 63.0043 10.9733 61.991 11.88C61.031 12.7867 60.231 14.0667 59.591 15.72C59.0043 17.3733 58.5777 19.3467 58.311 21.64C58.0443 23.88 57.911 26.3867 57.911 29.16C57.911 31.9333 58.0443 34.4667 58.311 36.76C58.5777 39.0533 59.0043 41.0267 59.591 42.68C60.231 44.3333 61.031 45.6133 61.991 46.52C63.0043 47.4267 64.2577 47.88 65.751 47.88C67.2443 47.88 68.4977 47.4267 69.511 46.52C70.5243 45.6133 71.3243 44.3333 71.911 42.68C72.4977 41.0267 72.9243 39.0533 73.191 36.76C73.4577 34.4667 73.591 31.9333 73.591 29.16ZM128.18 16.12C128.18 18.1467 127.78 20.0933 126.98 21.96C126.18 23.8267 125.14 25.64 123.86 27.4C122.58 29.1067 121.14 30.76 119.54 32.36C117.94 33.96 116.366 35.48 114.82 36.92C114.02 37.6667 113.14 38.52 112.18 39.48C111.273 40.3867 110.393 41.32 109.54 42.28C108.686 43.24 107.913 44.1467 107.22 45C106.58 45.8 106.18 46.4667 106.02 47H129.86V57H92.8998C92.7931 56.4133 92.7398 55.6667 92.7398 54.76C92.7398 53.8533 92.7398 53.2133 92.7398 52.84C92.7398 50.28 93.1398 47.9333 93.9398 45.8C94.7931 43.6667 95.8864 41.6933 97.2198 39.88C98.5531 38.0133 100.046 36.28 101.7 34.68C103.406 33.08 105.086 31.48 106.74 29.88C108.02 28.6533 109.22 27.5067 110.34 26.44C111.46 25.32 112.446 24.2533 113.3 23.24C114.153 22.1733 114.82 21.1333 115.3 20.12C115.78 19.0533 116.02 17.9867 116.02 16.92C116.02 14.5733 115.353 12.92 114.02 11.96C112.686 11 111.033 10.52 109.06 10.52C107.62 10.52 106.26 10.76 104.98 11.24C103.753 11.6667 102.606 12.2 101.54 12.84C100.526 13.4267 99.6464 14.04 98.8998 14.68C98.1531 15.2667 97.5931 15.7467 97.2198 16.12L91.2998 7.8C93.6464 5.61333 96.3664 3.82666 99.4598 2.44C102.606 0.999996 105.966 0.279996 109.54 0.279996C112.793 0.279996 115.593 0.653329 117.94 1.4C120.286 2.14666 122.206 3.21333 123.7 4.6C125.246 5.93333 126.366 7.58666 127.06 9.56C127.806 11.48 128.18 13.6667 128.18 16.12ZM152.209 58.2C150.769 58.2 149.249 58.0933 147.649 57.88C146.049 57.72 144.502 57.48 143.009 57.16C141.515 56.84 140.155 56.4933 138.929 56.12C137.702 55.7467 136.742 55.4 136.049 55.08L138.369 45.16C139.755 45.7467 141.515 46.3867 143.649 47.08C145.835 47.72 148.529 48.04 151.729 48.04C155.409 48.04 158.102 47.3467 159.809 45.96C161.515 44.5733 162.369 42.7067 162.369 40.36C162.369 38.92 162.049 37.72 161.409 36.76C160.822 35.7467 159.995 34.9467 158.929 34.36C157.862 33.72 156.582 33.2933 155.089 33.08C153.649 32.8133 152.102 32.68 150.449 32.68H145.809V23.08H151.089C152.262 23.08 153.382 22.9733 154.449 22.76C155.569 22.5467 156.555 22.2 157.409 21.72C158.262 21.1867 158.929 20.4933 159.409 19.64C159.942 18.7333 160.209 17.6133 160.209 16.28C160.209 15.2667 159.995 14.3867 159.569 13.64C159.142 12.8933 158.582 12.28 157.889 11.8C157.249 11.32 156.475 10.9733 155.569 10.76C154.715 10.4933 153.835 10.36 152.929 10.36C150.635 10.36 148.502 10.7067 146.529 11.4C144.609 12.0933 142.849 12.9467 141.249 13.96L137.009 5.24C137.862 4.70667 138.849 4.14667 139.969 3.56C141.142 2.97333 142.422 2.44 143.809 1.96C145.195 1.48 146.662 1.08 148.209 0.759999C149.809 0.439997 151.489 0.279996 153.249 0.279996C156.502 0.279996 159.302 0.679997 161.649 1.48C164.049 2.22667 166.022 3.32 167.569 4.76C169.115 6.14666 170.262 7.8 171.009 9.72C171.755 11.5867 172.129 13.64 172.129 15.88C172.129 18.0667 171.515 20.2 170.289 22.28C169.062 24.3067 167.409 25.8533 165.329 26.92C168.209 28.0933 170.422 29.8533 171.969 32.2C173.569 34.4933 174.369 37.2667 174.369 40.52C174.369 43.08 173.942 45.4533 173.089 47.64C172.235 49.7733 170.902 51.64 169.089 53.24C167.275 54.7867 164.955 56.0133 162.129 56.92C159.355 57.7733 156.049 58.2 152.209 58.2Z" fill="white" fill-opacity="0.1"/>
</g>
<defs>
<filter id="filter0_bi_126_634" x="-15.6377" y="-15.72" width="206.006" height="89.9199" filterUnits="userSpaceOnUse" color-interpolation-filters="sRGB">
<feFlood flood-opacity="0" result="BackgroundImageFix"/>
<feGaussianBlur in="BackgroundImage" stdDeviation="8"/>
<feComposite in2="SourceAlpha" operator="in" result="effect1_backgroundBlur_126_634"/>
<feBlend mode="normal" in="SourceGraphic" in2="effect1_backgroundBlur_126_634" result="shape"/>
<feColorMatrix in="SourceAlpha" type="matrix" values="0 0 0 0 0 0 0 0 0 0 0 0 0 0 0 0 0 0 127 0" result="hardAlpha"/>
<feOffset dy="3"/>
<feGaussianBlur stdDeviation="1.5"/>
<feComposite in2="hardAlpha" operator="arithmetic" k2="-1" k3="1"/>
<feColorMatrix type="matrix" values="0 0 0 0 0.776667 0 0 0 0 0.817273 0 0 0 0 1 0 0 0 0.2 0"/>
<feBlend mode="normal" in2="shape" result="effect2_innerShadow_126_634"/>
</filter>
</defs>
</svg>
