<svg width="178" height="59" viewBox="0 0 178 59" fill="none" xmlns="http://www.w3.org/2000/svg">
<g filter="url(#filter0_bi_126_635)">
<path d="M37.7423 16.12C37.7423 18.1467 37.3423 20.0933 36.5423 21.96C35.7423 23.8267 34.7023 25.64 33.4223 27.4C32.1423 29.1067 30.7023 30.76 29.1023 32.36C27.5023 33.96 25.9289 35.48 24.3823 36.92C23.5823 37.6667 22.7023 38.52 21.7423 39.48C20.8356 40.3867 19.9556 41.32 19.1023 42.28C18.2489 43.24 17.4756 44.1467 16.7823 45C16.1423 45.8 15.7423 46.4667 15.5823 47H39.4223V57H2.46226C2.35559 56.4133 2.30226 55.6667 2.30226 54.76C2.30226 53.8533 2.30226 53.2133 2.30226 52.84C2.30226 50.28 2.70226 47.9333 3.50226 45.8C4.35559 43.6667 5.44892 41.6933 6.78226 39.88C8.11559 38.0133 9.60892 36.28 11.2623 34.68C12.9689 33.08 14.6489 31.48 16.3023 29.88C17.5823 28.6533 18.7823 27.5067 19.9023 26.44C21.0223 25.32 22.0089 24.2533 22.8623 23.24C23.7156 22.1733 24.3823 21.1333 24.8623 20.12C25.3423 19.0533 25.5823 17.9867 25.5823 16.92C25.5823 14.5733 24.9156 12.92 23.5823 11.96C22.2489 11 20.5956 10.52 18.6223 10.52C17.1823 10.52 15.8223 10.76 14.5423 11.24C13.3156 11.6667 12.1689 12.2 11.1023 12.84C10.0889 13.4267 9.20892 14.04 8.46226 14.68C7.71559 15.2667 7.15559 15.7467 6.78226 16.12L0.862256 7.8C3.20892 5.61333 5.92892 3.82666 9.02226 2.44C12.1689 0.999996 15.5289 0.279996 19.1023 0.279996C22.3556 0.279996 25.1556 0.653329 27.5023 1.4C29.8489 2.14666 31.7689 3.21333 33.2623 4.6C34.8089 5.93333 35.9289 7.58666 36.6223 9.56C37.3689 11.48 37.7423 13.6667 37.7423 16.12ZM86.251 29.16C86.251 38.4933 84.4643 45.6667 80.891 50.68C77.371 55.64 72.491 58.12 66.251 58.12C60.011 58.12 55.1043 55.64 51.531 50.68C48.011 45.6667 46.251 38.4933 46.251 29.16C46.251 24.52 46.7043 20.4133 47.611 16.84C48.571 13.2667 49.931 10.2533 51.691 7.8C53.451 5.34667 55.5577 3.48 58.011 2.2C60.4643 0.919996 63.211 0.279996 66.251 0.279996C72.491 0.279996 77.371 2.78666 80.891 7.8C84.4643 12.76 86.251 19.88 86.251 29.16ZM74.091 29.16C74.091 26.3867 73.9577 23.88 73.691 21.64C73.4243 19.3467 72.9977 17.3733 72.411 15.72C71.8243 14.0667 71.0243 12.7867 70.011 11.88C68.9977 10.9733 67.7443 10.52 66.251 10.52C64.7577 10.52 63.5043 10.9733 62.491 11.88C61.531 12.7867 60.731 14.0667 60.091 15.72C59.5043 17.3733 59.0777 19.3467 58.811 21.64C58.5443 23.88 58.411 26.3867 58.411 29.16C58.411 31.9333 58.5443 34.4667 58.811 36.76C59.0777 39.0533 59.5043 41.0267 60.091 42.68C60.731 44.3333 61.531 45.6133 62.491 46.52C63.5043 47.4267 64.7577 47.88 66.251 47.88C67.7443 47.88 68.9977 47.4267 70.011 46.52C71.0243 45.6133 71.8243 44.3333 72.411 42.68C72.9977 41.0267 73.4243 39.0533 73.691 36.76C73.9577 34.4667 74.091 31.9333 74.091 29.16ZM128.68 16.12C128.68 18.1467 128.28 20.0933 127.48 21.96C126.68 23.8267 125.64 25.64 124.36 27.4C123.08 29.1067 121.64 30.76 120.04 32.36C118.44 33.96 116.866 35.48 115.32 36.92C114.52 37.6667 113.64 38.52 112.68 39.48C111.773 40.3867 110.893 41.32 110.04 42.28C109.186 43.24 108.413 44.1467 107.72 45C107.08 45.8 106.68 46.4667 106.52 47H130.36V57H93.3998C93.2931 56.4133 93.2398 55.6667 93.2398 54.76C93.2398 53.8533 93.2398 53.2133 93.2398 52.84C93.2398 50.28 93.6398 47.9333 94.4398 45.8C95.2931 43.6667 96.3864 41.6933 97.7198 39.88C99.0531 38.0133 100.546 36.28 102.2 34.68C103.906 33.08 105.586 31.48 107.24 29.88C108.52 28.6533 109.72 27.5067 110.84 26.44C111.96 25.32 112.946 24.2533 113.8 23.24C114.653 22.1733 115.32 21.1333 115.8 20.12C116.28 19.0533 116.52 17.9867 116.52 16.92C116.52 14.5733 115.853 12.92 114.52 11.96C113.186 11 111.533 10.52 109.56 10.52C108.12 10.52 106.76 10.76 105.48 11.24C104.253 11.6667 103.106 12.2 102.04 12.84C101.026 13.4267 100.146 14.04 99.3998 14.68C98.6531 15.2667 98.0931 15.7467 97.7198 16.12L91.7998 7.8C94.1464 5.61333 96.8664 3.82666 99.9598 2.44C103.106 0.999996 106.466 0.279996 110.04 0.279996C113.293 0.279996 116.093 0.653329 118.44 1.4C120.786 2.14666 122.706 3.21333 124.2 4.6C125.746 5.93333 126.866 7.58666 127.56 9.56C128.306 11.48 128.68 13.6667 128.68 16.12ZM159.989 16.12C157.909 18.84 155.695 21.8 153.349 25C151.002 28.2 149.029 31.48 147.429 34.84H159.989V16.12ZM171.669 1.56V34.84H177.589V44.6H171.669V57H159.989V44.6H136.069V35.88C137.242 33.5333 138.709 30.8933 140.469 27.96C142.229 24.9733 144.175 21.9333 146.309 18.84C148.495 15.6933 150.789 12.6267 153.189 9.64C155.589 6.65333 157.989 3.96 160.389 1.56H171.669Z" fill="url(#paint0_linear_126_635)"/>
</g>
<defs>
<filter id="filter0_bi_126_635" x="-2.1377" y="-2.71997" width="182.726" height="63.8401" filterUnits="userSpaceOnUse" color-interpolation-filters="sRGB">
<feFlood flood-opacity="0" result="BackgroundImageFix"/>
<feGaussianBlur in="BackgroundImage" stdDeviation="1.5"/>
<feComposite in2="SourceAlpha" operator="in" result="effect1_backgroundBlur_126_635"/>
<feBlend mode="normal" in="SourceGraphic" in2="effect1_backgroundBlur_126_635" result="shape"/>
<feColorMatrix in="SourceAlpha" type="matrix" values="0 0 0 0 0 0 0 0 0 0 0 0 0 0 0 0 0 0 127 0" result="hardAlpha"/>
<feOffset dy="2"/>
<feGaussianBlur stdDeviation="1.5"/>
<feComposite in2="hardAlpha" operator="arithmetic" k2="-1" k3="1"/>
<feColorMatrix type="matrix" values="0 0 0 0 1 0 0 0 0 1 0 0 0 0 1 0 0 0 0.7 0"/>
<feBlend mode="normal" in2="shape" result="effect2_innerShadow_126_635"/>
</filter>
<linearGradient id="paint0_linear_126_635" x1="174.843" y1="57.07" x2="138.459" y2="-51.201" gradientUnits="userSpaceOnUse">
<stop stop-color="#F64F59"/>
<stop offset="0.484375" stop-color="#C471ED"/>
<stop offset="1" stop-color="#12C2E9"/>
</linearGradient>
</defs>
</svg>
