<svg width="17" height="17" viewBox="0 0 17 17" fill="none" xmlns="http://www.w3.org/2000/svg">
<g clip-path="url(#clip0_111_129)">
<path d="M1.02179 7.30688C1.09135 7.29559 1.16175 7.29038 1.23218 7.29129H13.2253L12.9638 7.16966C12.7082 7.04867 12.4757 6.88401 12.2766 6.68312L8.91341 3.31994C8.47048 2.89711 8.39605 2.21691 8.73704 1.70829C9.13391 1.1663 9.895 1.04861 10.437 1.44548C10.4808 1.47756 10.5224 1.51253 10.5616 1.55016L16.6433 7.63187C17.1185 8.10662 17.119 8.87676 16.6442 9.35204C16.6439 9.35235 16.6436 9.35269 16.6433 9.35299L10.5616 15.4347C10.0859 15.909 9.31576 15.908 8.84138 15.4323C8.80406 15.3949 8.7692 15.355 8.73704 15.3131C8.39605 14.8044 8.47048 14.1242 8.91341 13.7014L12.2705 10.3321C12.449 10.1535 12.6542 10.0037 12.8787 9.88818L13.2436 9.72398H1.29912C0.677759 9.74705 0.132608 9.31301 0.0158787 8.70225C-0.0916538 8.03915 0.358698 7.41445 1.02179 7.30688Z" fill="url(#paint0_linear_111_129)"/>
</g>
<defs>
<linearGradient id="paint0_linear_111_129" x1="0.481678" y1="15.5711" x2="14.4534" y2="-0.943992" gradientUnits="userSpaceOnUse">
<stop stop-color="#F64F59"/>
<stop offset="0.484375" stop-color="#C471ED"/>
<stop offset="1" stop-color="#12C2E9"/>
</linearGradient>
<clipPath id="clip0_111_129">
<rect width="17" height="17" fill="white" transform="matrix(-1 0 0 1 17 0)"/>
</clipPath>
</defs>
</svg>
