<svg width="224" height="73" viewBox="0 0 224 73" fill="none" xmlns="http://www.w3.org/2000/svg">
<g filter="url(#filter0_bi_107_112)">
<path d="M12.8315 9.27846C14.0968 3.84487 18.9399 0 24.5188 0H202.652C208.588 0 213.632 4.33928 214.518 10.2082L221.834 58.6595C222.959 66.1033 217.03 72.7318 209.508 72.4424L14.5219 64.9407C6.98948 64.6508 1.58635 57.5696 3.29592 50.228L12.8315 9.27846Z" fill="url(#paint0_linear_107_112)" fill-opacity="0.8"/>
<path d="M13.562 9.44855C14.7482 4.35457 19.2886 0.75 24.5188 0.75H202.652C208.217 0.75 212.945 4.81808 213.776 10.3202L221.093 58.7715C222.147 65.7501 216.589 71.9643 209.536 71.693L14.5507 64.1912C7.48909 63.9195 2.42365 57.2808 4.02638 50.3981L13.562 9.44855Z" stroke="url(#paint1_linear_107_112)" stroke-width="1.5"/>
</g>
<defs>
<filter id="filter0_bi_107_112" x="-1.02148" y="-4" width="226.993" height="80.4517" filterUnits="userSpaceOnUse" color-interpolation-filters="sRGB">
<feFlood flood-opacity="0" result="BackgroundImageFix"/>
<feGaussianBlur in="BackgroundImage" stdDeviation="2"/>
<feComposite in2="SourceAlpha" operator="in" result="effect1_backgroundBlur_107_112"/>
<feBlend mode="normal" in="SourceGraphic" in2="effect1_backgroundBlur_107_112" result="shape"/>
<feColorMatrix in="SourceAlpha" type="matrix" values="0 0 0 0 0 0 0 0 0 0 0 0 0 0 0 0 0 0 127 0" result="hardAlpha"/>
<feOffset dy="2"/>
<feGaussianBlur stdDeviation="1"/>
<feComposite in2="hardAlpha" operator="arithmetic" k2="-1" k3="1"/>
<feColorMatrix type="matrix" values="0 0 0 0 1 0 0 0 0 1 0 0 0 0 1 0 0 0 0.1 0"/>
<feBlend mode="normal" in2="shape" result="effect2_innerShadow_107_112"/>
</filter>
<linearGradient id="paint0_linear_107_112" x1="13" y1="-8.04165e-06" x2="240" y2="86" gradientUnits="userSpaceOnUse">
<stop stop-color="white" stop-opacity="0.05"/>
<stop offset="1" stop-color="white" stop-opacity="0"/>
</linearGradient>
<linearGradient id="paint1_linear_107_112" x1="217.653" y1="71.905" x2="176.315" y2="-56.682" gradientUnits="userSpaceOnUse">
<stop stop-color="#F64F59"/>
<stop offset="0.484375" stop-color="#C471ED"/>
<stop offset="1" stop-color="#12C2E9"/>
</linearGradient>
</defs>
</svg>
