<svg width="1920" height="2485" viewBox="0 0 1920 2485" fill="none" xmlns="http://www.w3.org/2000/svg">
<g opacity="0.4" filter="url(#filter0_f_417_81)">
<path d="M339.318 522.237C291.003 688.656 435.004 847.616 605.374 815.93L639.987 809.493C731.253 792.519 803.553 722.668 823.66 632.04C858.105 476.786 729.353 333.831 571.353 351.901L536.375 355.901C443.168 366.561 365.475 432.142 339.318 522.237Z" fill="url(#paint0_linear_417_81)"/>
</g>
<g opacity="0.25" filter="url(#filter1_f_417_81)">
<path d="M1631 1583.13C1631 1716.16 1740.72 1824 1873.75 1824C1972.73 1824 2062.96 1763.59 2099.46 1671.58C2176.63 1477.02 1984.32 1283.97 1788.25 1357.24C1694.1 1392.42 1631 1482.62 1631 1583.13Z" fill="url(#paint1_linear_417_81)"/>
</g>
<g opacity="0.4" filter="url(#filter2_f_417_81)">
<path d="M-214.682 1988.24C-262.997 2154.66 -118.996 2313.62 51.374 2281.93L85.9872 2275.49C177.253 2258.52 249.553 2188.67 269.66 2098.04C304.105 1942.79 175.353 1799.83 17.3534 1817.9L-17.625 1821.9C-110.832 1832.56 -188.525 1898.14 -214.682 1988.24Z" fill="url(#paint2_linear_417_81)"/>
</g>
<g opacity="0.3" filter="url(#filter3_f_417_81)">
<path d="M1019.51 1278.37C1055.11 1368.66 1142.29 1428 1239.34 1428H1252.11C1381.56 1428 1486.5 1323.06 1486.5 1193.61C1486.5 1090.47 1419.09 999.458 1320.43 969.396L1308.22 965.674C1119.05 908.032 946.987 1094.39 1019.51 1278.37Z" fill="url(#paint3_linear_417_81)"/>
</g>
<defs>
<filter id="filter0_f_417_81" x="-20.1443" y="0.352783" width="1199.43" height="1169.64" filterUnits="userSpaceOnUse" color-interpolation-filters="sRGB">
<feFlood flood-opacity="0" result="BackgroundImageFix"/>
<feBlend mode="normal" in="SourceGraphic" in2="BackgroundImageFix" result="shape"/>
<feGaussianBlur stdDeviation="175" result="effect1_foregroundBlur_417_81"/>
</filter>
<filter id="filter1_f_417_81" x="1281" y="991.347" width="1185.91" height="1182.65" filterUnits="userSpaceOnUse" color-interpolation-filters="sRGB">
<feFlood flood-opacity="0" result="BackgroundImageFix"/>
<feBlend mode="normal" in="SourceGraphic" in2="BackgroundImageFix" result="shape"/>
<feGaussianBlur stdDeviation="175" result="effect1_foregroundBlur_417_81"/>
</filter>
<filter id="filter2_f_417_81" x="-574.144" y="1466.35" width="1199.43" height="1169.64" filterUnits="userSpaceOnUse" color-interpolation-filters="sRGB">
<feFlood flood-opacity="0" result="BackgroundImageFix"/>
<feBlend mode="normal" in="SourceGraphic" in2="BackgroundImageFix" result="shape"/>
<feGaussianBlur stdDeviation="175" result="effect1_foregroundBlur_417_81"/>
</filter>
<filter id="filter3_f_417_81" x="652.552" y="605.014" width="1183.95" height="1172.99" filterUnits="userSpaceOnUse" color-interpolation-filters="sRGB">
<feFlood flood-opacity="0" result="BackgroundImageFix"/>
<feBlend mode="normal" in="SourceGraphic" in2="BackgroundImageFix" result="shape"/>
<feGaussianBlur stdDeviation="175" result="effect1_foregroundBlur_417_81"/>
</filter>
<linearGradient id="paint0_linear_417_81" x1="770.78" y1="701.26" x2="422.62" y2="373.5" gradientUnits="userSpaceOnUse">
<stop stop-color="#571919"/>
<stop offset="1" stop-color="#6314E2"/>
</linearGradient>
<linearGradient id="paint1_linear_417_81" x1="2019.28" y1="1743.76" x2="1671.12" y2="1416" gradientUnits="userSpaceOnUse">
<stop stop-color="#192E57"/>
<stop offset="1" stop-color="#2514E2"/>
</linearGradient>
<linearGradient id="paint2_linear_417_81" x1="216.78" y1="2167.26" x2="-131.38" y2="1839.5" gradientUnits="userSpaceOnUse">
<stop stop-color="#571919"/>
<stop offset="1" stop-color="#6314E2"/>
</linearGradient>
<linearGradient id="paint3_linear_417_81" x1="1364.28" y1="1280.26" x2="1016.12" y2="952.5" gradientUnits="userSpaceOnUse">
<stop stop-color="#870D39"/>
<stop offset="1" stop-color="#14B1E2"/>
</linearGradient>
</defs>
</svg>
