<svg width="56" height="56" viewBox="0 0 56 56" fill="none" xmlns="http://www.w3.org/2000/svg">
<g filter="url(#filter0_bi_96_442)">
<path d="M21.2413 21.2413H54.069C55.1341 21.2445 55.9968 22.1072 56 23.1724V48.2758C55.9968 49.341 55.1341 50.2037 54.069 50.2069H51.1724C50.6392 50.2069 50.2069 50.6391 50.2069 51.1724V54.0689C50.2051 54.7952 49.796 55.459 49.1481 55.7871C48.5001 56.1151 47.7229 56.0519 47.1365 55.6234L40.0979 50.5737C39.7659 50.3352 39.3674 50.2069 38.9586 50.2069H21.2413C20.1762 50.2037 19.3135 49.341 19.3103 48.2758V23.1724C19.3103 22.1059 20.1749 21.2413 21.2413 21.2413Z" fill="#866ADC" fill-opacity="0.1"/>
</g>
<g filter="url(#filter1_bi_96_442)">
<path d="M0 1.93103V27.0345C0 28.101 0.864554 28.9655 1.93103 28.9655H4.82759C5.36083 28.9655 5.7931 29.3978 5.7931 29.931V32.8276C5.793 33.5539 6.20043 34.2188 6.84758 34.5485C7.49472 34.8782 8.27212 34.8168 8.85959 34.3898L15.9079 29.3392C16.2368 29.098 16.6336 28.9672 17.0414 28.9655H34.7586C35.8251 28.9655 36.6897 28.101 36.6897 27.0345V1.93103C36.6897 0.864554 35.8251 0 34.7586 0H1.93103C0.864554 0 0 0.864554 0 1.93103Z" fill="#31B791" fill-opacity="0.1"/>
</g>
<path d="M13.5171 11.5862C13.2611 11.5862 13.0155 11.4844 12.8345 11.3033L9.93796 8.4068C9.56104 8.02976 9.56104 7.41859 9.93796 7.04156L12.8345 4.145C13.0769 3.89401 13.4359 3.79335 13.7735 3.88171C14.1111 3.97007 14.3747 4.2337 14.4631 4.57127C14.5514 4.90885 14.4508 5.26783 14.1998 5.51025L11.9858 7.72418L14.1998 9.93811C14.4758 10.2142 14.5584 10.6295 14.409 10.9902C14.2596 11.3509 13.9076 11.5862 13.5171 11.5862Z" fill="#3083FF"/>
<path d="M23.1724 11.5862C22.7819 11.5861 22.43 11.3509 22.2805 10.9901C22.1311 10.6294 22.2137 10.2142 22.4897 9.93804L24.7037 7.72411L22.4897 5.51017C22.1238 5.13133 22.1291 4.52913 22.5015 4.15669C22.8739 3.78426 23.4761 3.77903 23.855 4.14493L26.7515 7.04149C27.1285 7.41852 27.1285 8.02969 26.7515 8.40673L23.855 11.3033C23.674 11.4844 23.4284 11.5861 23.1724 11.5862Z" fill="#3083FF"/>
<path d="M17.3795 12.5518C17.3004 12.5521 17.2215 12.5424 17.1449 12.5228C16.8963 12.4608 16.6826 12.3025 16.5507 12.0829C16.4189 11.8632 16.3798 11.6002 16.442 11.3516L18.373 3.62751C18.5056 3.1138 19.0279 2.80331 19.5425 2.93224C20.0571 3.06117 20.3713 3.5812 20.2461 4.09675L18.3151 11.8209C18.2075 12.2501 17.822 12.5513 17.3795 12.5518Z" fill="#3083FF"/>
<path d="M32.8277 41.5173C32.5717 41.5173 32.3261 41.4155 32.1451 41.2344L30.2141 39.3034C29.8372 38.9264 29.8372 38.3152 30.2141 37.9382L32.1451 36.0071C32.524 35.6412 33.1262 35.6464 33.4986 36.0189C33.871 36.3913 33.8763 36.9935 33.5104 37.3724L32.262 38.6208L33.5104 39.8692C33.7864 40.1453 33.869 40.5605 33.7196 40.9213C33.5702 41.282 33.2182 41.5173 32.8277 41.5173Z" fill="#75FF5F"/>
<path d="M41.5171 41.5173C41.1266 41.5173 40.7747 41.282 40.6253 40.9213C40.4759 40.5605 40.5584 40.1453 40.8345 39.8692L42.0829 38.6208L40.8345 37.3724C40.4686 36.9935 40.4738 36.3913 40.8462 36.0189C41.2187 35.6464 41.8209 35.6412 42.1997 36.0071L44.1308 37.9382C44.5077 38.3152 44.5077 38.9264 44.1308 39.3034L42.1997 41.2344C42.0187 41.4155 41.7731 41.5173 41.5171 41.5173Z" fill="#75FF5F"/>
<path d="M36.6895 42.4828C36.6361 42.4831 36.5828 42.4786 36.5302 42.4693C36.0046 42.3816 35.6494 41.8847 35.7366 41.359L36.7021 35.5658C36.8032 35.0538 37.2929 34.7148 37.8077 34.8005C38.3225 34.8861 38.6761 35.3653 38.6061 35.8825L37.6405 41.6757C37.5632 42.1409 37.1611 42.4821 36.6895 42.4828Z" fill="#75FF5F"/>
<path d="M31.8619 17.3793H30.8964C30.3632 17.3793 29.9309 16.947 29.9309 16.4138C29.9309 15.8805 30.3632 15.4482 30.8964 15.4482H31.8619C32.3952 15.4482 32.8275 15.8805 32.8275 16.4138C32.8275 16.947 32.3952 17.3793 31.8619 17.3793Z" fill="#3083FF"/>
<path d="M31.8619 21.2413H30.8964C30.3632 21.2413 29.9309 20.8091 29.9309 20.2758C29.9309 19.7426 30.3632 19.3103 30.8964 19.3103H31.8619C32.3952 19.3103 32.8275 19.7426 32.8275 20.2758C32.8275 20.8091 32.3952 21.2413 31.8619 21.2413Z" fill="#3083FF"/>
<path d="M27.0345 17.3793H5.79315C5.25991 17.3793 4.82764 16.947 4.82764 16.4138C4.82764 15.8805 5.25991 15.4482 5.79315 15.4482H27.0345C27.5678 15.4482 28 15.8805 28 16.4138C28 16.947 27.5678 17.3793 27.0345 17.3793Z" fill="#3083FF"/>
<path d="M18.3449 25.1034H5.79315C5.25991 25.1034 4.82764 24.6711 4.82764 24.1379C4.82764 23.6046 5.25991 23.1724 5.79315 23.1724H18.3449C18.8781 23.1724 19.3104 23.6046 19.3104 24.1379C19.3104 24.6711 18.8781 25.1034 18.3449 25.1034Z" fill="#3083FF"/>
<path d="M27.0346 21.2413H10.6208C10.0876 21.2413 9.65527 20.8091 9.65527 20.2758C9.65527 19.7426 10.0876 19.3103 10.6208 19.3103H27.0346C27.5678 19.3103 28.0001 19.7426 28.0001 20.2758C28.0001 20.8091 27.5678 21.2413 27.0346 21.2413Z" fill="#3083FF"/>
<path d="M6.75867 21.2413H5.79315C5.25991 21.2413 4.82764 20.8091 4.82764 20.2758C4.82764 19.7426 5.25991 19.3103 5.79315 19.3103H6.75867C7.29191 19.3103 7.72419 19.7426 7.72419 20.2758C7.72419 20.8091 7.29191 21.2413 6.75867 21.2413Z" fill="#3083FF"/>
<path d="M30.8965 45.3793C28.7635 45.3793 27.0344 43.6502 27.0344 41.5172C27.0344 40.8906 25.6595 39.928 24.7095 39.5022C24.3623 39.3466 24.1389 39.0016 24.1389 38.6212C24.1389 38.2407 24.3623 37.8958 24.7095 37.7401C25.8082 37.2439 27.0344 36.2938 27.0344 35.7241C27.0344 33.5912 28.7635 31.8621 30.8965 31.8621C31.4297 31.8621 31.862 32.2943 31.862 32.8276C31.862 33.3608 31.4297 33.7931 30.8965 33.7931C29.83 33.7931 28.9655 34.6576 28.9655 35.7241C28.8163 36.9408 28.1001 38.0151 27.0344 38.6207C28.1001 39.2263 28.8163 40.3006 28.9655 41.5172C28.9655 42.5837 29.83 43.4483 30.8965 43.4483C31.4297 43.4483 31.862 43.8805 31.862 44.4138C31.862 44.947 31.4297 45.3793 30.8965 45.3793Z" fill="#75FF5F"/>
<path d="M43.4482 45.3793C42.9149 45.3793 42.4827 44.947 42.4827 44.4138C42.4827 43.8805 42.9149 43.4483 43.4482 43.4483C44.5147 43.4483 45.3792 42.5837 45.3792 41.5172C45.5283 40.3006 46.2445 39.2263 47.3102 38.6207C46.2445 38.0151 45.5283 36.9408 45.3792 35.7241C45.3792 34.6576 44.5147 33.7931 43.4482 33.7931C42.9149 33.7931 42.4827 33.3608 42.4827 32.8276C42.4827 32.2943 42.9149 31.8621 43.4482 31.8621C45.5811 31.8621 47.3102 33.5912 47.3102 35.7241C47.3102 36.3507 48.6851 37.3134 49.6352 37.7392C49.9824 37.8948 50.2057 38.2398 50.2057 38.6202C50.2057 39.0006 49.9824 39.3456 49.6352 39.5012C48.5364 39.9975 47.3102 40.9476 47.3102 41.5172C47.3102 43.6502 45.5811 45.3793 43.4482 45.3793Z" fill="#75FF5F"/>
<defs>
<filter id="filter0_bi_96_442" x="11.3103" y="13.2413" width="52.6897" height="50.754" filterUnits="userSpaceOnUse" color-interpolation-filters="sRGB">
<feFlood flood-opacity="0" result="BackgroundImageFix"/>
<feGaussianBlur in="BackgroundImage" stdDeviation="4"/>
<feComposite in2="SourceAlpha" operator="in" result="effect1_backgroundBlur_96_442"/>
<feBlend mode="normal" in="SourceGraphic" in2="effect1_backgroundBlur_96_442" result="shape"/>
<feColorMatrix in="SourceAlpha" type="matrix" values="0 0 0 0 0 0 0 0 0 0 0 0 0 0 0 0 0 0 127 0" result="hardAlpha"/>
<feOffset dy="2"/>
<feGaussianBlur stdDeviation="1"/>
<feComposite in2="hardAlpha" operator="arithmetic" k2="-1" k3="1"/>
<feColorMatrix type="matrix" values="0 0 0 0 1 0 0 0 0 1 0 0 0 0 1 0 0 0 0.3 0"/>
<feBlend mode="normal" in2="shape" result="effect2_innerShadow_96_442"/>
</filter>
<filter id="filter1_bi_96_442" x="-8" y="-8" width="52.6897" height="50.7589" filterUnits="userSpaceOnUse" color-interpolation-filters="sRGB">
<feFlood flood-opacity="0" result="BackgroundImageFix"/>
<feGaussianBlur in="BackgroundImage" stdDeviation="4"/>
<feComposite in2="SourceAlpha" operator="in" result="effect1_backgroundBlur_96_442"/>
<feBlend mode="normal" in="SourceGraphic" in2="effect1_backgroundBlur_96_442" result="shape"/>
<feColorMatrix in="SourceAlpha" type="matrix" values="0 0 0 0 0 0 0 0 0 0 0 0 0 0 0 0 0 0 127 0" result="hardAlpha"/>
<feOffset dy="2"/>
<feGaussianBlur stdDeviation="1"/>
<feComposite in2="hardAlpha" operator="arithmetic" k2="-1" k3="1"/>
<feColorMatrix type="matrix" values="0 0 0 0 1 0 0 0 0 1 0 0 0 0 1 0 0 0 0.3 0"/>
<feBlend mode="normal" in2="shape" result="effect2_innerShadow_96_442"/>
</filter>
</defs>
</svg>
