<svg width="48" height="48" viewBox="0 0 48 48" fill="none" xmlns="http://www.w3.org/2000/svg">
<g filter="url(#filter0_bi_96_571)">
<path d="M13.6041 30.1472C13.3733 30.1472 13.1386 30.0908 12.9229 29.9699C12.2432 29.5935 11.999 28.7369 12.3765 28.0583L17.8792 18.0589C18.2557 17.3818 19.1122 17.1321 19.7908 17.5125C20.4705 17.8886 20.7151 18.7456 20.3376 19.4242L14.8345 29.4235C14.5778 29.8861 14.0988 30.1472 13.6041 30.1472Z" fill="white" fill-opacity="0.1"/>
</g>
<g filter="url(#filter1_bi_96_571)">
<path d="M34.3958 30.1472C33.9015 30.1472 33.4221 29.8861 33.1654 29.4235L27.6623 19.4242C27.2848 18.7456 27.5294 17.8886 28.2091 17.5125C28.8888 17.1321 29.7442 17.3818 30.1207 18.0589L35.6234 28.0583C36.0009 28.7365 35.7567 29.5935 35.077 29.9699C34.8613 30.0908 34.6266 30.1472 34.3958 30.1472Z" fill="white" fill-opacity="0.1"/>
</g>
<g filter="url(#filter2_bi_96_571)">
<path d="M31.0312 35.3438C31.0312 36.1311 30.4127 36.75 29.625 36.75H18.375C17.5873 36.75 16.9688 36.1311 16.9688 35.3438C16.9688 34.556 17.5873 33.9375 18.375 33.9375H29.625C30.4127 33.9375 31.0312 34.556 31.0312 35.3438Z" fill="white" fill-opacity="0.1"/>
</g>
<path d="M47.803 31.2374L42.9844 31.125L38.0625 36.75L35.25 42.2344L38.0625 48C38.3156 48 38.5404 47.9436 38.7656 47.803L47.3251 42.7969C47.3815 42.7687 47.4375 42.7126 47.4939 42.6844C47.803 42.4032 48 41.9813 48 41.5876V31.9406C48 31.6875 47.9436 31.4344 47.803 31.2374Z" fill="#5A69E6"/>
<path d="M33.1406 31.125L28.4158 31.2374C28.2751 31.4626 28.2188 31.6875 28.2188 31.9406V41.5873C28.2188 41.9813 28.4158 42.4032 28.7249 42.6844C28.7812 42.7123 37.3594 47.803 37.3594 47.803C37.5846 47.9436 37.8094 48 38.0625 48V36.75L33.1406 31.125Z" fill="#7984EB"/>
<path d="M47.803 31.2374L38.0625 36.75L28.4158 31.2374C28.4436 31.2096 28.4718 31.1532 28.5 31.125C28.6124 30.9562 28.7531 30.8438 28.9219 30.7313L37.3594 25.697C37.5846 25.5564 37.8373 25.5 38.0625 25.5C38.2877 25.5 38.5404 25.5564 38.7656 25.697L47.2969 30.7313C47.4657 30.8438 47.6063 30.9844 47.7188 31.125C47.7469 31.1532 47.7748 31.2096 47.803 31.2374Z" fill="#979FEF"/>
<path d="M19.5842 31.2374L14.8594 31.125L9.9375 36.75L7.125 42.2344L9.9375 48C10.1906 48 10.4154 47.9436 10.6406 47.803L19.1063 42.7969C19.1627 42.7687 19.2188 42.7126 19.2751 42.6844C19.5842 42.4032 19.7812 41.9813 19.7812 41.5876V31.9406C19.7812 31.6875 19.7249 31.4344 19.5842 31.2374Z" fill="#5A69E6"/>
<path d="M5.01562 31.125L0.197021 31.2374C0.0563964 31.4626 0 31.6875 0 31.9406V41.5873C0 41.9813 0.197021 42.4032 0.506104 42.6844C0.5625 42.7123 9.23438 47.803 9.23438 47.803C9.45959 47.9436 9.68445 48 9.9375 48V36.75L5.01562 31.125Z" fill="#7984EB"/>
<path d="M19.5842 31.2374L9.9375 36.75L0.197021 31.2374C0.224854 31.2096 0.253052 31.1532 0.28125 31.125C0.393677 30.9562 0.534302 30.8438 0.703125 30.7313L9.23438 25.697C9.4596 25.5564 9.71228 25.5 9.9375 25.5C10.1627 25.5 10.4154 25.5564 10.6406 25.697L19.0781 30.7313C19.247 30.8438 19.3876 30.9844 19.5 31.125C19.5282 31.1532 19.556 31.2096 19.5842 31.2374Z" fill="#B5BAF3"/>
<path d="M33.6467 5.83118L28.9219 5.71875L24 11.3438L21.1875 16.8281L24 22.5938C24.2531 22.5938 24.4779 22.5374 24.7031 22.3967L33.1688 17.3906C33.2252 17.3624 33.2812 17.3064 33.3376 17.2782C33.6467 16.9969 33.8438 16.5751 33.8438 16.1814V6.5343C33.8438 6.28125 33.7874 6.0282 33.6467 5.83118Z" fill="#5A69E6"/>
<path d="M19.0781 5.71875L14.3533 5.83118C14.2126 6.0564 14.1562 6.28125 14.1562 6.5343V16.181C14.1562 16.5751 14.3533 16.9969 14.6624 17.2782C14.7187 17.306 23.2969 22.3967 23.2969 22.3967C23.5221 22.5374 23.7469 22.5938 24 22.5938V11.3438L19.0781 5.71875Z" fill="#7984EB"/>
<path d="M33.6467 5.83118L24 11.3438L14.3533 5.83118C14.3811 5.80334 14.4093 5.74695 14.4375 5.71875C14.5499 5.54993 14.6906 5.4375 14.8594 5.32507L23.2969 0.197021C23.5221 0.0563964 23.7748 0 24 0C24.2252 0 24.4779 0.0563964 24.7031 0.197021L33.1406 5.32507C33.3094 5.4375 33.4501 5.57812 33.5625 5.71875C33.5907 5.74695 33.6185 5.80334 33.6467 5.83118Z" fill="#B5BAF3"/>
<path d="M33.6467 5.83118L24 11.3438V0C24.2252 0 24.4779 0.0563964 24.7031 0.197021L33.1406 5.32507C33.3094 5.4375 33.4501 5.57812 33.5625 5.71875C33.5907 5.74695 33.6185 5.80334 33.6467 5.83118Z" fill="#979FEF"/>
<defs>
<filter id="filter0_bi_96_571" x="4.19897" y="9.33423" width="24.3162" height="28.813" filterUnits="userSpaceOnUse" color-interpolation-filters="sRGB">
<feFlood flood-opacity="0" result="BackgroundImageFix"/>
<feGaussianBlur in="BackgroundImage" stdDeviation="4"/>
<feComposite in2="SourceAlpha" operator="in" result="effect1_backgroundBlur_96_571"/>
<feBlend mode="normal" in="SourceGraphic" in2="effect1_backgroundBlur_96_571" result="shape"/>
<feColorMatrix in="SourceAlpha" type="matrix" values="0 0 0 0 0 0 0 0 0 0 0 0 0 0 0 0 0 0 127 0" result="hardAlpha"/>
<feOffset dy="2"/>
<feGaussianBlur stdDeviation="1"/>
<feComposite in2="hardAlpha" operator="arithmetic" k2="-1" k3="1"/>
<feColorMatrix type="matrix" values="0 0 0 0 1 0 0 0 0 1 0 0 0 0 1 0 0 0 0.3 0"/>
<feBlend mode="normal" in2="shape" result="effect2_innerShadow_96_571"/>
</filter>
<filter id="filter1_bi_96_571" x="19.4849" y="9.33423" width="24.3162" height="28.813" filterUnits="userSpaceOnUse" color-interpolation-filters="sRGB">
<feFlood flood-opacity="0" result="BackgroundImageFix"/>
<feGaussianBlur in="BackgroundImage" stdDeviation="4"/>
<feComposite in2="SourceAlpha" operator="in" result="effect1_backgroundBlur_96_571"/>
<feBlend mode="normal" in="SourceGraphic" in2="effect1_backgroundBlur_96_571" result="shape"/>
<feColorMatrix in="SourceAlpha" type="matrix" values="0 0 0 0 0 0 0 0 0 0 0 0 0 0 0 0 0 0 127 0" result="hardAlpha"/>
<feOffset dy="2"/>
<feGaussianBlur stdDeviation="1"/>
<feComposite in2="hardAlpha" operator="arithmetic" k2="-1" k3="1"/>
<feColorMatrix type="matrix" values="0 0 0 0 1 0 0 0 0 1 0 0 0 0 1 0 0 0 0.3 0"/>
<feBlend mode="normal" in2="shape" result="effect2_innerShadow_96_571"/>
</filter>
<filter id="filter2_bi_96_571" x="8.96875" y="25.9375" width="30.0625" height="18.8125" filterUnits="userSpaceOnUse" color-interpolation-filters="sRGB">
<feFlood flood-opacity="0" result="BackgroundImageFix"/>
<feGaussianBlur in="BackgroundImage" stdDeviation="4"/>
<feComposite in2="SourceAlpha" operator="in" result="effect1_backgroundBlur_96_571"/>
<feBlend mode="normal" in="SourceGraphic" in2="effect1_backgroundBlur_96_571" result="shape"/>
<feColorMatrix in="SourceAlpha" type="matrix" values="0 0 0 0 0 0 0 0 0 0 0 0 0 0 0 0 0 0 127 0" result="hardAlpha"/>
<feOffset dy="2"/>
<feGaussianBlur stdDeviation="1"/>
<feComposite in2="hardAlpha" operator="arithmetic" k2="-1" k3="1"/>
<feColorMatrix type="matrix" values="0 0 0 0 1 0 0 0 0 1 0 0 0 0 1 0 0 0 0.3 0"/>
<feBlend mode="normal" in2="shape" result="effect2_innerShadow_96_571"/>
</filter>
</defs>
</svg>
