<svg width="151" height="44" viewBox="0 0 151 44" fill="none" xmlns="http://www.w3.org/2000/svg">
<g clip-path="url(#clip0_77_26)">
<path d="M32.6142 42.3794C26.9273 47.2017 19.4949 38.8642 24.7576 33.5792L32.9516 25.3473C34.9395 23.3502 35.9334 20.732 35.9334 18.1179C35.9314 15.5018 34.9375 12.8837 32.9516 10.8886C28.9758 6.89442 22.5333 6.89442 18.5576 10.8886L10.2868 19.1936C4.99988 24.505 -3.35574 17.0463 1.42207 11.2702C2.23016 10.2939 3.27865 9.5633 4.62614 9.20001L16.5596 5.9872L25.3738 3.61463C29.192 2.58767 32.8708 3.48474 35.6567 5.55287C36.0244 5.82281 36.3739 6.11506 36.7092 6.42356L36.7355 6.44994C36.8405 6.54939 36.9456 6.64884 37.0466 6.75235L37.0547 6.7625C37.1597 6.86803 37.2668 6.97763 37.3678 7.08723L37.3779 7.09738C37.689 7.43631 37.9819 7.79149 38.2527 8.1629C40.3113 10.9617 41.2062 14.6596 40.184 18.4954L37.8223 27.3565L34.687 39.1118C34.3233 40.4818 33.592 41.5513 32.6142 42.3794Z" fill="url(#paint0_linear_77_26)"/>
<path opacity="0.15" d="M37.0588 28.1846C33.9437 31.3142 29.8042 32.7897 25.7234 32.607L32.9517 25.3452C34.9396 23.3481 35.9336 20.73 35.9336 18.1159C35.9316 15.4998 34.9376 12.8817 32.9517 10.8866C28.976 6.89239 22.5335 6.89239 18.5577 10.8866L11.3314 18.1443C11.1516 14.0466 12.6183 9.88804 15.7334 6.76047C16.0021 6.49054 16.2769 6.23278 16.5617 5.9872L25.3759 3.61463C29.1941 2.58767 32.8729 3.48474 35.6588 5.55287C36.0265 5.82281 36.376 6.11507 36.7114 6.42356L36.7376 6.44994C36.8427 6.54939 36.9477 6.64884 37.0487 6.75235L37.0568 6.7625C37.1619 6.86804 37.2689 6.97763 37.37 7.08723L37.3801 7.09738C37.6912 7.43632 37.9841 7.79149 38.2548 8.1629C40.3134 10.9617 41.2084 14.6596 40.1861 18.4954L37.8245 27.3565C37.5821 27.6407 37.3255 27.9167 37.0588 28.1846Z" fill="url(#paint1_linear_77_26)"/>
<path d="M42.2172 11.7886C42.3384 9.16438 41.403 6.49956 39.4091 4.49435C38.904 3.98695 38.3545 3.54451 37.7747 3.17715C36.0717 2.07916 34.1 1.57988 32.1484 1.67324L39.3303 0.0901799C41.5485 -0.398946 43.5647 1.16585 43.8475 3.24616C43.9081 3.67237 43.894 4.11888 43.793 4.5735L42.2172 11.7886Z" fill="url(#paint2_linear_77_26)"/>
<path d="M30.1738 22.5546L22.1495 30.616C21.4869 31.2817 20.7111 31.7688 19.8849 32.0753C17.6485 32.9074 15.0384 32.4203 13.2424 30.616C12.0121 29.38 11.3979 27.7625 11.3979 26.1408C11.4 24.5233 12.0141 22.9017 13.2444 21.6677L21.2687 13.6062C23.7293 11.1342 27.7152 11.1342 30.1738 13.6042C30.2789 13.7097 30.3799 13.8173 30.4728 13.9289C32.6284 16.4172 32.5274 20.1901 30.1738 22.5546Z" fill="url(#paint3_linear_77_26)"/>
<path d="M37.0769 21.2009L32.9517 25.3452C34.9396 23.3481 35.9335 20.73 35.9335 18.1159C35.9315 15.4998 34.9375 12.8817 32.9517 10.8866C28.9759 6.89239 22.5334 6.89239 18.5576 10.8866L22.6829 6.74221C26.2142 3.19452 31.6951 2.79875 35.6588 5.55491C36.1598 5.89993 36.6325 6.2957 37.0769 6.74221C37.5194 7.18668 37.9133 7.6616 38.2568 8.16493C41.0022 12.1469 40.6103 17.6511 37.0769 21.2009Z" fill="url(#paint4_linear_77_26)"/>
<path opacity="0.15" d="M30.174 22.5546L22.1497 30.616C21.487 31.2817 20.7113 31.7688 19.885 32.0753C16.6668 27.5778 17.0688 21.2739 21.0951 17.229C23.6588 14.6535 27.1315 13.5535 30.473 13.931C32.6285 16.4172 32.5275 20.1901 30.174 22.5546Z" fill="url(#paint5_linear_77_26)"/>
<path opacity="0.15" d="M42.1033 11.7898C42.2246 9.16554 41.2892 6.50072 39.2952 4.4955C38.7902 3.98811 38.2407 3.54567 37.6609 3.17831C39.568 2.21224 41.8427 2.23456 43.7337 3.24529C43.7943 3.6715 43.7801 4.118 43.6791 4.57263L42.1033 11.7898Z" fill="url(#paint6_linear_77_26)"/>
</g>
<path d="M79.112 9.34287C85.8068 9.34287 89.1542 11.7772 89.1542 16.646C89.1542 18.2232 88.7241 19.549 87.8641 20.6233C87.0272 21.6976 85.9695 22.5434 84.691 23.1605L91.9786 33.8238H85.3186L79.7048 24.6349H77.3686V33.8238H71.4409V9.34287H79.112ZM78.8679 13.9373H77.3686V20.0747H78.8679C80.2859 20.0747 81.3436 19.8233 82.041 19.3204C82.7616 18.7947 83.1219 17.9718 83.1219 16.8517C83.1219 15.8688 82.7849 15.1374 82.1107 14.6574C81.4366 14.1773 80.3557 13.9373 78.8679 13.9373Z" fill="white"/>
<path d="M113.666 33.8238H107.738V14.1773H101.287V9.34287H120.116V14.1773H113.666V33.8238Z" fill="white"/>
<path d="M142.691 13.8345C140.878 13.8345 139.472 14.5316 138.472 15.926C137.473 17.3203 136.973 19.229 136.973 21.6519C136.973 24.1434 137.45 26.0521 138.403 27.3778C139.356 28.6807 140.843 29.3322 142.866 29.3322C143.912 29.3322 144.946 29.2065 145.969 28.955C146.992 28.6807 148.073 28.3379 149.212 27.9264V32.8638C148.096 33.3209 146.98 33.6524 145.865 33.8581C144.772 34.0638 143.575 34.1667 142.273 34.1667C139.623 34.1667 137.461 33.6409 135.787 32.5895C134.114 31.538 132.87 30.0751 132.057 28.2007C131.266 26.3264 130.871 24.132 130.871 21.6176C130.871 19.149 131.324 16.966 132.231 15.0688C133.137 13.1716 134.474 11.6858 136.241 10.6115C138.007 9.53716 140.169 9 142.726 9C143.935 9 145.179 9.14858 146.457 9.44573C147.759 9.72003 149.003 10.1429 150.188 10.7144L148.34 15.3774C147.41 14.9659 146.481 14.6116 145.551 14.3145C144.621 13.9945 143.668 13.8345 142.691 13.8345Z" fill="white"/>
<defs>
<linearGradient id="paint0_linear_77_26" x1="39.4577" y1="43.217" x2="-0.0298322" y2="3.21693" gradientUnits="userSpaceOnUse">
<stop stop-color="#F64F59"/>
<stop offset="0.484375" stop-color="#C471ED"/>
<stop offset="1" stop-color="#12C2E9"/>
</linearGradient>
<linearGradient id="paint1_linear_77_26" x1="17.0385" y1="5.26588" x2="38.5588" y2="26.687" gradientUnits="userSpaceOnUse">
<stop stop-color="white" stop-opacity="0.7"/>
<stop offset="1" stop-color="white"/>
</linearGradient>
<linearGradient id="paint2_linear_77_26" x1="43.5511" y1="11.6118" x2="32.0959" y2="0.0520577" gradientUnits="userSpaceOnUse">
<stop stop-color="#F64F59"/>
<stop offset="0.484375" stop-color="#C471ED"/>
<stop offset="1" stop-color="#12C2E9"/>
</linearGradient>
<linearGradient id="paint3_linear_77_26" x1="31.4334" y1="32.1583" x2="11.3022" y2="11.8469" gradientUnits="userSpaceOnUse">
<stop stop-color="#F64F59"/>
<stop offset="0.484375" stop-color="#C471ED"/>
<stop offset="1" stop-color="#12C2E9"/>
</linearGradient>
<linearGradient id="paint4_linear_77_26" x1="39.4491" y1="25.0213" x2="18.4621" y2="3.84201" gradientUnits="userSpaceOnUse">
<stop stop-color="#F64F59"/>
<stop offset="0.484375" stop-color="#C471ED"/>
<stop offset="1" stop-color="#12C2E9"/>
</linearGradient>
<linearGradient id="paint5_linear_77_26" x1="18.5006" y1="31.4844" x2="29.118" y2="14.1835" gradientUnits="userSpaceOnUse">
<stop stop-color="white" stop-opacity="0.7"/>
<stop offset="1" stop-color="white"/>
</linearGradient>
<linearGradient id="paint6_linear_77_26" x1="41.7513" y1="11.113" x2="40.6189" y2="2.71054" gradientUnits="userSpaceOnUse">
<stop stop-color="white" stop-opacity="0.7"/>
<stop offset="1" stop-color="white"/>
</linearGradient>
<clipPath id="clip0_77_26">
<rect width="43.8387" height="43.8387" fill="white"/>
</clipPath>
</defs>
</svg>
