<svg width="24" height="24" viewBox="0 0 24 24" fill="none" xmlns="http://www.w3.org/2000/svg">
<path d="M16.6105 1.73682H7.38945C4.24734 1.73682 1.73682 4.24734 1.73682 7.38945V16.6263C1.73682 19.7526 4.24734 22.2789 7.38945 22.2789H16.6263C19.7526 22.2789 22.2789 19.7684 22.2789 16.6263V7.38945C22.2631 4.24734 19.7526 1.73682 16.6105 1.73682ZM20.4631 15.8052C20.4631 18.3631 18.3789 20.4789 15.7894 20.4789H8.2105C5.65261 20.4789 3.53682 18.3947 3.53682 15.8052V8.2105C3.53682 5.65261 5.62103 3.53682 8.2105 3.53682H15.8368C18.3947 3.53682 20.5105 5.62103 20.5105 8.2105V15.8052H20.4631Z" fill="url(#paint0_linear_146_113)"/>
<path d="M15.7421 8.30486L15.6947 8.25749L15.6474 8.21012C14.6684 7.23118 13.3579 6.69434 12 6.69434C9.09474 6.71013 6.7421 9.09433 6.75789 11.9996C6.75789 13.4049 7.32631 14.747 8.30526 15.7417C9.28421 16.7364 10.6105 17.2891 12 17.2891C14.9211 17.2417 17.2579 14.7943 17.2105 11.8417C17.179 10.5312 16.6737 9.25223 15.7421 8.30486ZM12 15.4891C10.0737 15.5206 8.51053 13.9733 8.47895 12.047C8.44737 10.1206 9.99474 8.55749 11.9211 8.52591C13.8474 8.49433 15.4105 10.0417 15.4421 11.968V12.0154C15.4421 13.8943 13.8947 15.4575 12 15.4891Z" fill="url(#paint1_linear_146_113)"/>
<path d="M18.7736 6.45749C18.7736 7.15222 18.2367 7.72064 17.542 7.72064C17.2104 7.72064 16.8946 7.59433 16.6736 7.35749C16.1841 6.86801 16.1841 6.04696 16.7051 5.55749C16.942 5.32065 17.242 5.19434 17.5736 5.19434C17.8578 5.19434 18.142 5.30486 18.363 5.47855L18.3946 5.51012C18.442 5.5417 18.4736 5.58907 18.5051 5.62065L18.5367 5.65223C18.663 5.87328 18.7736 6.15749 18.7736 6.45749Z" fill="url(#paint2_linear_146_113)"/>
<defs>
<linearGradient id="paint0_linear_146_113" x1="3.3854" y1="3.3854" x2="20.6146" y2="20.6146" gradientUnits="userSpaceOnUse">
<stop stop-color="#FAE100"/>
<stop offset="0.15" stop-color="#FCB720"/>
<stop offset="0.3" stop-color="#FF7950"/>
<stop offset="0.5" stop-color="#FF1C74"/>
<stop offset="1" stop-color="#6C1CD1"/>
</linearGradient>
<linearGradient id="paint1_linear_146_113" x1="8.27621" y1="8.27612" x2="15.696" y2="15.6959" gradientUnits="userSpaceOnUse">
<stop stop-color="#FAE100"/>
<stop offset="0.15" stop-color="#FCB720"/>
<stop offset="0.3" stop-color="#FF7950"/>
<stop offset="0.5" stop-color="#FF1C74"/>
<stop offset="1" stop-color="#6C1CD1"/>
</linearGradient>
<linearGradient id="paint2_linear_146_113" x1="16.6671" y1="5.56412" x2="18.4328" y2="7.32986" gradientUnits="userSpaceOnUse">
<stop stop-color="#FAE100"/>
<stop offset="0.15" stop-color="#FCB720"/>
<stop offset="0.3" stop-color="#FF7950"/>
<stop offset="0.5" stop-color="#FF1C74"/>
<stop offset="1" stop-color="#6C1CD1"/>
</linearGradient>
</defs>
</svg>
