<svg width="24" height="24" viewBox="0 0 24 24" fill="none" xmlns="http://www.w3.org/2000/svg">
<g clip-path="url(#clip0_146_90)">
<path d="M23.9989 16.9961C23.9823 16.6988 23.5619 9.66682 20.8915 5.46031C20.8369 5.37429 20.7642 5.30112 20.6786 5.24604C17.3768 3.11979 15.1283 3.12495 15.0335 3.12551C14.7608 3.12907 14.5259 3.28779 14.4124 3.51701L13.2781 5.69075C15.4059 5.82992 17.4266 6.31376 19.0715 7.08828C19.4229 7.2537 19.5736 7.67267 19.4082 8.02395C19.2883 8.27848 19.0354 8.42778 18.7716 8.42778C18.6712 8.42778 18.5694 8.40612 18.4725 8.36056C16.6845 7.51868 14.3858 7.055 12 7.055C9.61436 7.055 7.31575 7.51859 5.5277 8.36042C5.17647 8.52579 4.7575 8.37509 4.59208 8.02376C4.4267 7.67239 4.57741 7.25346 4.92874 7.08809C6.57363 6.31371 8.59436 5.82987 10.7221 5.6907L9.589 3.51954C9.47599 3.28892 9.24034 3.12912 8.96655 3.12551C8.87116 3.12532 6.62303 3.12003 3.32158 5.24604C3.23594 5.30117 3.16324 5.37429 3.10863 5.46031C0.438204 9.66682 0.0176883 16.6988 0.00109456 16.9961C-0.00931169 17.1825 0.0548133 17.3653 0.17936 17.5044C0.303204 17.6427 3.24499 20.8752 7.3113 20.8752C7.32948 20.8752 7.34819 20.8751 7.36642 20.875C7.58013 20.8734 7.78145 20.7748 7.91369 20.607L9.78925 18.2268C7.36952 17.9504 5.17277 17.2248 3.56027 16.1432C3.23777 15.9269 3.1517 15.4901 3.36803 15.1676C3.58436 14.8451 4.02119 14.7591 4.34364 14.9754C6.2103 16.2275 9.00095 16.9456 12 16.9456C14.9992 16.9456 17.7899 16.2275 19.6563 14.9753C19.9787 14.759 20.4156 14.845 20.632 15.1675C20.8483 15.49 20.7623 15.9267 20.4398 16.1431C18.8275 17.2248 16.6306 17.9505 14.2108 18.2268L16.0863 20.607C16.2186 20.7748 16.4199 20.8735 16.6336 20.8751C16.6521 20.8752 16.6703 20.8752 16.6887 20.8752C20.7546 20.8752 23.6969 17.6427 23.8207 17.5045C23.9452 17.3653 24.0093 17.1825 23.9989 16.9961Z" fill="#948FE1"/>
<path d="M23.9989 16.9961C23.9824 16.6988 23.5619 9.66682 20.8915 5.46031C20.8369 5.37429 20.7642 5.30112 20.6786 5.24604C17.3768 3.11979 15.1283 3.12495 15.0335 3.12551C14.7608 3.12907 14.5259 3.28779 14.4124 3.51701L13.278 5.69075C15.4059 5.82992 17.4266 6.31376 19.0715 7.08828C19.4229 7.2537 19.5736 7.67267 19.4082 8.02395C19.2883 8.27848 19.0354 8.42778 18.7716 8.42778C18.6712 8.42778 18.5694 8.40612 18.4725 8.36056C16.6845 7.51868 14.3858 7.055 12 7.055V16.9456C14.9992 16.9456 17.7899 16.2275 19.6563 14.9753C19.9787 14.759 20.4156 14.845 20.632 15.1675C20.8483 15.49 20.7623 15.9267 20.4398 16.1431C18.8275 17.2248 16.6306 17.9505 14.2108 18.2268L16.0863 20.607C16.2186 20.7748 16.4199 20.8735 16.6336 20.8751C16.6521 20.8752 16.6703 20.8752 16.6887 20.8752C20.7546 20.8752 23.6969 17.6427 23.8207 17.5045C23.9452 17.3653 24.0093 17.1825 23.9989 16.9961Z" fill="#6E67D6"/>
<path d="M8.76907 10.1538C7.49665 10.1538 6.46143 11.189 6.46143 12.4615C6.46143 13.734 7.49665 14.7692 8.76907 14.7692C10.0415 14.7692 11.0768 13.734 11.0768 12.4615C11.0768 11.189 10.0415 10.1538 8.76907 10.1538Z" fill="#E7F0EF"/>
<path d="M15.2308 10.1538C13.9584 10.1538 12.9231 11.189 12.9231 12.4615C12.9231 13.734 13.9584 14.7692 15.2308 14.7692C16.5032 14.7692 17.5385 13.734 17.5385 12.4615C17.5385 11.189 16.5032 10.1538 15.2308 10.1538Z" fill="#C5E1E6"/>
</g>
<defs>
<clipPath id="clip0_146_90">
<rect width="24" height="24" fill="white"/>
</clipPath>
</defs>
</svg>
